<svg xmlns="http://www.w3.org/2000/svg" viewBox="0 0 48 38"><defs><style>.cls-1{fill:#fff;}</style></defs><title>Asset 1</title><g id="Layer_2" data-name="Layer 2"><g id="Layer_1-2" data-name="Layer 1"><path class="cls-1" d="M31,17H22a1,1,0,0,0-.71.29l-5,5A1,1,0,0,0,16,23V37a1,1,0,0,0,1,1H31a1,1,0,0,0,1-1V18A1,1,0,0,0,31,17Zm-9,2.41V23H18.41ZM30,36H18V25h5a1,1,0,0,0,1-1V19h6Zm-6.71-9.71-3,3a1,1,0,0,0,1.42,1.42L23,29.41V34a1,1,0,0,0,2,0V29.41l1.29,1.3a1,1,0,0,0,1.42,0,1,1,0,0,0,0-1.42l-3-3A1,1,0,0,0,23.29,26.29ZM40,16.06V16C40,7.18,33.27,0,25,0,18.59,0,11.7,3.81,11.05,10A12,12,0,0,0,12,34h2V23a3,3,0,0,1,.88-2.12l5-5A3,3,0,0,1,22,15h9a3,3,0,0,1,3,3V34h5a9,9,0,0,0,1-17.94Z"/></g></g></svg>